<svg width="102" height="24" viewBox="0 0 102 24" fill="none" xmlns="http://www.w3.org/2000/svg">
<path d="M0.24 24V0.959999H9.456C11.0987 0.959999 12.4267 1.29067 13.44 1.952C14.4533 2.60267 15.1947 3.424 15.664 4.416C16.1333 5.408 16.368 6.41067 16.368 7.424C16.368 8.71467 16.0747 9.78667 15.488 10.64C14.912 11.4933 14.1173 12.064 13.104 12.352V11.552C14.544 11.8507 15.6213 12.5173 16.336 13.552C17.0613 14.5867 17.424 15.744 17.424 17.024C17.424 18.4 17.168 19.6107 16.656 20.656C16.1547 21.7013 15.3867 22.5227 14.352 23.12C13.3173 23.7067 12.016 24 10.448 24H0.24ZM4.656 19.904H10C10.5867 19.904 11.1093 19.7813 11.568 19.536C12.0267 19.28 12.384 18.928 12.64 18.48C12.9067 18.0213 13.04 17.4827 13.04 16.864C13.04 16.32 12.928 15.8347 12.704 15.408C12.48 14.9813 12.1387 14.6453 11.68 14.4C11.232 14.144 10.672 14.016 10 14.016H4.656V19.904ZM4.656 9.952H9.392C9.88267 9.952 10.32 9.86667 10.704 9.696C11.088 9.52533 11.392 9.264 11.616 8.912C11.84 8.54933 11.952 8.08533 11.952 7.52C11.952 6.816 11.7333 6.224 11.296 5.744C10.8587 5.264 10.224 5.024 9.392 5.024H4.656V9.952ZM20.615 24V0.959999H35.655V5.024H24.967V9.952H33.735V14.016H24.967V19.936H35.655V24H20.615ZM44.45 24L37.41 0.959999H41.89L47.65 19.904L53.506 0.959999H57.986L50.946 24H44.45ZM59.7563 24V23.456L70.7003 5.024H60.7163V0.959999H78.3163V1.504L67.4363 19.904H77.9963V24H59.7563ZM80.5463 24L87.5863 0.959999H94.0823L101.122 24H96.6423L90.3703 3.68H91.2023L85.0263 24H80.5463ZM84.7703 19.2V15.136H96.9303V19.2H84.7703Z" fill="#F4F4F4"/>
</svg>
