<svg width="122" height="25" viewBox="0 0 122 25" fill="none" xmlns="http://www.w3.org/2000/svg">
<path d="M0.24 24V0.959999H14.32V5.312H4.592V10.304H12.4V14.656H4.592V24H0.24ZM17.2088 24V0.959999H26.9368C27.1608 0.959999 27.4594 0.970666 27.8328 0.991999C28.2168 1.00267 28.5581 1.03467 28.8568 1.088C30.2328 1.30133 31.3581 1.75467 32.2327 2.448C33.1181 3.14133 33.7688 4.016 34.1848 5.072C34.6008 6.11733 34.8088 7.28533 34.8088 8.576C34.8088 10.5067 34.3288 12.16 33.3688 13.536C32.4088 14.9013 30.9048 15.744 28.8568 16.064L26.9368 16.192H21.5608V24H17.2088ZM30.2008 24L25.6568 14.624L30.1368 13.76L35.1288 24H30.2008ZM21.5608 12.128H26.7448C26.9688 12.128 27.2141 12.1173 27.4808 12.096C27.7474 12.0747 27.9928 12.032 28.2168 11.968C28.8034 11.808 29.2568 11.5413 29.5768 11.168C29.8968 10.784 30.1154 10.3627 30.2328 9.904C30.3608 9.43467 30.4248 8.992 30.4248 8.576C30.4248 8.16 30.3608 7.72267 30.2328 7.264C30.1154 6.79467 29.8968 6.37333 29.5768 6C29.2568 5.616 28.8034 5.344 28.2168 5.184C27.9928 5.12 27.7474 5.07733 27.4808 5.056C27.2141 5.03467 26.9688 5.024 26.7448 5.024H21.5608V12.128ZM48.5343 24.48C46.2303 24.48 44.2409 23.9787 42.5663 22.976C40.9023 21.9733 39.6169 20.5707 38.7103 18.768C37.8143 16.9653 37.3663 14.8693 37.3663 12.48C37.3663 10.0907 37.8143 7.99467 38.7103 6.192C39.6169 4.38933 40.9023 2.98667 42.5663 1.984C44.2409 0.981333 46.2303 0.48 48.5343 0.48C50.8383 0.48 52.8223 0.981333 54.4862 1.984C56.1609 2.98667 57.4463 4.38933 58.3423 6.192C59.2489 7.99467 59.7023 10.0907 59.7023 12.48C59.7023 14.8693 59.2489 16.9653 58.3423 18.768C57.4463 20.5707 56.1609 21.9733 54.4862 22.976C52.8223 23.9787 50.8383 24.48 48.5343 24.48ZM48.5343 20.384C49.9956 20.4053 51.2116 20.0907 52.1823 19.44C53.1529 18.7893 53.8783 17.8667 54.3583 16.672C54.8489 15.4773 55.0943 14.08 55.0943 12.48C55.0943 10.88 54.8489 9.49333 54.3583 8.32C53.8783 7.14667 53.1529 6.23467 52.1823 5.584C51.2116 4.93333 49.9956 4.59733 48.5343 4.576C47.0729 4.55467 45.8569 4.86933 44.8863 5.52C43.9156 6.17067 43.1849 7.09333 42.6943 8.288C42.2143 9.48267 41.9743 10.88 41.9743 12.48C41.9743 14.08 42.2143 15.4667 42.6943 16.64C43.1849 17.8133 43.9156 18.7253 44.8863 19.376C45.8569 20.0267 47.0729 20.3627 48.5343 20.384ZM63.2163 24V0.959999H67.5683V19.936H77.4883V24H63.2163ZM89.4718 24.48C87.1678 24.48 85.1784 23.9787 83.5038 22.976C81.8398 21.9733 80.5544 20.5707 79.6478 18.768C78.7518 16.9653 78.3038 14.8693 78.3038 12.48C78.3038 10.0907 78.7518 7.99467 79.6478 6.192C80.5544 4.38933 81.8398 2.98667 83.5038 1.984C85.1784 0.981333 87.1678 0.48 89.4718 0.48C91.7758 0.48 93.7598 0.981333 95.4237 1.984C97.0984 2.98667 98.3838 4.38933 99.2798 6.192C100.186 7.99467 100.64 10.0907 100.64 12.48C100.64 14.8693 100.186 16.9653 99.2798 18.768C98.3838 20.5707 97.0984 21.9733 95.4237 22.976C93.7598 23.9787 91.7758 24.48 89.4718 24.48ZM89.4718 20.384C90.9331 20.4053 92.1491 20.0907 93.1198 19.44C94.0904 18.7893 94.8158 17.8667 95.2958 16.672C95.7864 15.4773 96.0318 14.08 96.0318 12.48C96.0318 10.88 95.7864 9.49333 95.2958 8.32C94.8158 7.14667 94.0904 6.23467 93.1198 5.584C92.1491 4.93333 90.9331 4.59733 89.4718 4.576C88.0104 4.55467 86.7944 4.86933 85.8238 5.52C84.8531 6.17067 84.1224 7.09333 83.6318 8.288C83.1518 9.48267 82.9118 10.88 82.9118 12.48C82.9118 14.08 83.1518 15.4667 83.6318 16.64C84.1224 17.8133 84.8531 18.7253 85.8238 19.376C86.7944 20.0267 88.0104 20.3627 89.4718 20.384ZM107.825 24L100.785 0.959999H105.265L111.025 19.904L116.881 0.959999H121.361L114.321 24H107.825Z" fill="#F4F4F4"/>
</svg>
