<svg width="188" height="25" viewBox="0 0 188 25" fill="none" xmlns="http://www.w3.org/2000/svg">
<path d="M0.24 24V0.959999H3.088V11.776L13.168 0.959999H16.752L6.288 12.144L17.568 24H13.888L3.088 12.736V24H0.24ZM24.7145 24.48C23.4238 24.48 22.3412 24.2453 21.4665 23.776C20.6025 23.296 19.9465 22.6667 19.4985 21.888C19.0612 21.1093 18.8425 20.256 18.8425 19.328C18.8425 18.4213 19.0132 17.6373 19.3545 16.976C19.7065 16.304 20.1972 15.7493 20.8265 15.312C21.4558 14.864 22.2078 14.512 23.0825 14.256C23.9038 14.032 24.8212 13.84 25.8345 13.68C26.8585 13.5093 27.8932 13.3547 28.9385 13.216C29.9838 13.0773 30.9598 12.944 31.8665 12.816L30.8425 13.408C30.8745 11.872 30.5652 10.736 29.9145 10C29.2745 9.264 28.1652 8.896 26.5865 8.896C25.5412 8.896 24.6238 9.136 23.8345 9.616C23.0558 10.0853 22.5065 10.8533 22.1865 11.92L19.4825 11.104C19.8985 9.58933 20.7038 8.4 21.8985 7.536C23.0932 6.672 24.6665 6.24 26.6185 6.24C28.1865 6.24 29.5305 6.52267 30.6505 7.088C31.7812 7.64267 32.5918 8.48533 33.0825 9.616C33.3278 10.1493 33.4825 10.7307 33.5465 11.36C33.6105 11.9787 33.6425 12.6293 33.6425 13.312V24H31.1145V19.856L31.7065 20.24C31.0558 21.6373 30.1438 22.6933 28.9705 23.408C27.8078 24.1227 26.3892 24.48 24.7145 24.48ZM25.1465 22.096C26.1705 22.096 27.0558 21.9147 27.8025 21.552C28.5598 21.1787 29.1678 20.6933 29.6265 20.096C30.0852 19.488 30.3838 18.8267 30.5225 18.112C30.6825 17.5787 30.7678 16.9867 30.7785 16.336C30.7998 15.6747 30.8105 15.168 30.8105 14.816L31.8025 15.248C30.8745 15.376 29.9625 15.4987 29.0665 15.616C28.1705 15.7333 27.3225 15.8613 26.5225 16C25.7225 16.128 25.0025 16.2827 24.3625 16.464C23.8932 16.6133 23.4505 16.8053 23.0345 17.04C22.6292 17.2747 22.2985 17.5787 22.0425 17.952C21.7972 18.3147 21.6745 18.768 21.6745 19.312C21.6745 19.7813 21.7918 20.2293 22.0265 20.656C22.2718 21.0827 22.6452 21.4293 23.1465 21.696C23.6585 21.9627 24.3252 22.096 25.1465 22.096ZM45.0825 24.48C43.3332 24.48 41.8452 24.0907 40.6185 23.312C39.4025 22.5227 38.4745 21.44 37.8345 20.064C37.1945 18.688 36.8638 17.12 36.8425 15.36C36.8638 13.5573 37.1998 11.9733 37.8505 10.608C38.5118 9.232 39.4558 8.16 40.6825 7.392C41.9092 6.624 43.3865 6.24 45.1145 6.24C46.9385 6.24 48.5065 6.688 49.8185 7.584C51.1412 8.48 52.0265 9.70667 52.4745 11.264L49.6585 12.112C49.2958 11.1093 48.7038 10.3307 47.8825 9.776C47.0718 9.22133 46.1385 8.944 45.0825 8.944C43.8985 8.944 42.9225 9.22133 42.1545 9.776C41.3865 10.32 40.8158 11.0773 40.4425 12.048C40.0692 13.008 39.8772 14.112 39.8665 15.36C39.8878 17.28 40.3305 18.832 41.1945 20.016C42.0692 21.1893 43.3652 21.776 45.0825 21.776C46.2132 21.776 47.1518 21.52 47.8985 21.008C48.6452 20.4853 49.2105 19.7333 49.5945 18.752L52.4745 19.504C51.8772 21.1147 50.9438 22.3467 49.6745 23.2C48.4052 24.0533 46.8745 24.48 45.0825 24.48ZM68.044 24V15.344C68.044 14.5227 67.9693 13.7333 67.82 12.976C67.6813 12.2187 67.4307 11.5413 67.068 10.944C66.716 10.336 66.236 9.856 65.628 9.504C65.0307 9.152 64.2733 8.976 63.356 8.976C62.6413 8.976 61.9907 9.09867 61.404 9.344C60.828 9.57867 60.332 9.94133 59.916 10.432C59.5 10.9227 59.1747 11.5413 58.94 12.288C58.716 13.024 58.604 13.8933 58.604 14.896L56.732 14.32C56.732 12.6453 57.0307 11.2107 57.628 10.016C58.236 8.81067 59.084 7.888 60.172 7.248C61.2707 6.59733 62.5613 6.272 64.044 6.272C65.164 6.272 66.1187 6.448 66.908 6.8C67.6973 7.152 68.3533 7.62133 68.876 8.208C69.3987 8.784 69.8093 9.43467 70.108 10.16C70.4067 10.8747 70.6147 11.6053 70.732 12.352C70.86 13.088 70.924 13.7867 70.924 14.448V24H68.044ZM55.724 24V0.959999H58.284V13.68H58.604V24H55.724ZM82.4438 24.48C80.7264 24.48 79.2438 24.0907 77.9958 23.312C76.7584 22.5333 75.8038 21.456 75.1318 20.08C74.4598 18.704 74.1238 17.1253 74.1238 15.344C74.1238 13.5307 74.4651 11.9413 75.1478 10.576C75.8304 9.21067 76.7958 8.14933 78.0438 7.392C79.2918 6.624 80.7584 6.24 82.4438 6.24C84.1718 6.24 85.6598 6.62933 86.9078 7.408C88.1558 8.176 89.1104 9.248 89.7718 10.624C90.4438 11.9893 90.7798 13.5627 90.7798 15.344C90.7798 17.1467 90.4438 18.736 89.7718 20.112C89.0998 21.4773 88.1398 22.5493 86.8918 23.328C85.6438 24.096 84.1611 24.48 82.4438 24.48ZM82.4438 21.776C84.2358 21.776 85.5691 21.1787 86.4438 19.984C87.3184 18.7893 87.7558 17.2427 87.7558 15.344C87.7558 13.392 87.3131 11.84 86.4278 10.688C85.5424 9.52533 84.2144 8.944 82.4438 8.944C81.2384 8.944 80.2464 9.216 79.4678 9.76C78.6891 10.304 78.1078 11.056 77.7238 12.016C77.3398 12.976 77.1478 14.0853 77.1478 15.344C77.1478 17.2853 77.5958 18.8427 78.4918 20.016C79.3878 21.1893 80.7051 21.776 82.4438 21.776ZM94.3025 24V6.72H96.8465V10.896L96.4305 10.352C96.6332 9.81867 96.8945 9.328 97.2145 8.88C97.5452 8.432 97.9132 8.064 98.3185 7.776C98.7665 7.41333 99.2732 7.136 99.8385 6.944C100.404 6.752 100.98 6.64 101.567 6.608C102.153 6.56533 102.703 6.60267 103.215 6.72V9.392C102.617 9.232 101.961 9.18933 101.247 9.264C100.532 9.33867 99.8705 9.6 99.2625 10.048C98.7078 10.4427 98.2758 10.9227 97.9665 11.488C97.6678 12.0533 97.4598 12.6667 97.3425 13.328C97.2252 13.9787 97.1665 14.6453 97.1665 15.328V24H94.3025ZM113.288 24.48C111.57 24.48 110.088 24.0907 108.84 23.312C107.602 22.5333 106.648 21.456 105.976 20.08C105.304 18.704 104.968 17.1253 104.968 15.344C104.968 13.5307 105.309 11.9413 105.992 10.576C106.674 9.21067 107.64 8.14933 108.888 7.392C110.136 6.624 111.602 6.24 113.288 6.24C115.016 6.24 116.504 6.62933 117.752 7.408C119 8.176 119.954 9.248 120.616 10.624C121.288 11.9893 121.624 13.5627 121.624 15.344C121.624 17.1467 121.288 18.736 120.616 20.112C119.944 21.4773 118.984 22.5493 117.736 23.328C116.488 24.096 115.005 24.48 113.288 24.48ZM113.288 21.776C115.08 21.776 116.413 21.1787 117.288 19.984C118.162 18.7893 118.6 17.2427 118.6 15.344C118.6 13.392 118.157 11.84 117.272 10.688C116.386 9.52533 115.058 8.944 113.288 8.944C112.082 8.944 111.09 9.216 110.312 9.76C109.533 10.304 108.952 11.056 108.568 12.016C108.184 12.976 107.992 14.0853 107.992 15.344C107.992 17.2853 108.44 18.8427 109.336 20.016C110.232 21.1893 111.549 21.776 113.288 21.776ZM129.193 24L122.921 6.72H125.801L130.649 20.368L135.481 6.72H138.377L132.105 24H129.193ZM147.174 24.464C145.116 24.464 143.425 24.016 142.102 23.12C140.79 22.2133 139.985 20.9493 139.686 19.328L142.598 18.864C142.833 19.8027 143.372 20.5493 144.214 21.104C145.057 21.648 146.102 21.92 147.35 21.92C148.534 21.92 149.462 21.6747 150.134 21.184C150.806 20.6933 151.142 20.0267 151.142 19.184C151.142 18.6933 151.03 18.2987 150.806 18C150.582 17.6907 150.118 17.4027 149.414 17.136C148.721 16.8693 147.67 16.5493 146.262 16.176C144.737 15.7707 143.537 15.3493 142.662 14.912C141.788 14.4747 141.164 13.968 140.79 13.392C140.417 12.816 140.23 12.1173 140.23 11.296C140.23 10.2827 140.508 9.39733 141.062 8.64C141.617 7.872 142.39 7.28 143.382 6.864C144.385 6.448 145.548 6.24 146.87 6.24C148.182 6.24 149.356 6.448 150.39 6.864C151.425 7.28 152.257 7.872 152.886 8.64C153.526 9.39733 153.905 10.2827 154.022 11.296L151.11 11.824C150.972 10.896 150.524 10.1653 149.766 9.632C149.02 9.09867 148.054 8.816 146.87 8.784C145.75 8.74133 144.838 8.93867 144.134 9.376C143.441 9.81333 143.094 10.4053 143.094 11.152C143.094 11.568 143.222 11.9253 143.478 12.224C143.745 12.5227 144.23 12.8053 144.934 13.072C145.649 13.3387 146.684 13.6427 148.038 13.984C149.564 14.368 150.764 14.7893 151.638 15.248C152.524 15.696 153.153 16.2293 153.526 16.848C153.9 17.456 154.086 18.208 154.086 19.104C154.086 20.768 153.473 22.08 152.246 23.04C151.02 23.9893 149.329 24.464 147.174 24.464ZM157.599 24L157.615 0.959999H160.495V15.04L167.743 6.72H171.439L163.807 15.36L172.335 24H168.351L160.495 15.68V24H157.599ZM178.84 24.48C177.549 24.48 176.466 24.2453 175.592 23.776C174.728 23.296 174.072 22.6667 173.624 21.888C173.186 21.1093 172.968 20.256 172.968 19.328C172.968 18.4213 173.138 17.6373 173.48 16.976C173.832 16.304 174.322 15.7493 174.952 15.312C175.581 14.864 176.333 14.512 177.208 14.256C178.029 14.032 178.946 13.84 179.96 13.68C180.984 13.5093 182.018 13.3547 183.064 13.216C184.109 13.0773 185.085 12.944 185.992 12.816L184.968 13.408C185 11.872 184.69 10.736 184.04 10C183.4 9.264 182.29 8.896 180.712 8.896C179.666 8.896 178.749 9.136 177.96 9.616C177.181 10.0853 176.632 10.8533 176.312 11.92L173.608 11.104C174.024 9.58933 174.829 8.4 176.024 7.536C177.218 6.672 178.792 6.24 180.744 6.24C182.312 6.24 183.656 6.52267 184.776 7.088C185.906 7.64267 186.717 8.48533 187.208 9.616C187.453 10.1493 187.608 10.7307 187.672 11.36C187.736 11.9787 187.767 12.6293 187.767 13.312V24H185.24V19.856L185.832 20.24C185.181 21.6373 184.269 22.6933 183.096 23.408C181.933 24.1227 180.514 24.48 178.84 24.48ZM179.272 22.096C180.296 22.096 181.181 21.9147 181.928 21.552C182.685 21.1787 183.293 20.6933 183.752 20.096C184.21 19.488 184.509 18.8267 184.648 18.112C184.808 17.5787 184.893 16.9867 184.904 16.336C184.925 15.6747 184.936 15.168 184.936 14.816L185.928 15.248C185 15.376 184.088 15.4987 183.192 15.616C182.296 15.7333 181.448 15.8613 180.648 16C179.848 16.128 179.128 16.2827 178.488 16.464C178.018 16.6133 177.576 16.8053 177.16 17.04C176.754 17.2747 176.424 17.5787 176.168 17.952C175.922 18.3147 175.799 18.768 175.799 19.312C175.799 19.7813 175.917 20.2293 176.152 20.656C176.397 21.0827 176.77 21.4293 177.272 21.696C177.784 21.9627 178.45 22.096 179.272 22.096Z" fill="#F4F4F4"/>
</svg>
