<svg width="306" height="24" viewBox="0 0 306 24" fill="none" xmlns="http://www.w3.org/2000/svg">
<path d="M6.432 18V2.064H0.24V0.719999H14.004V2.064H7.812V18H6.432ZM25.422 18V11.256C25.422 10.44 25.338 9.712 25.17 9.072C25.01 8.432 24.762 7.888 24.426 7.44C24.098 6.992 23.682 6.652 23.178 6.42C22.682 6.188 22.094 6.072 21.414 6.072C20.71 6.072 20.098 6.196 19.578 6.444C19.066 6.684 18.642 7.024 18.306 7.464C17.978 7.904 17.73 8.428 17.562 9.036C17.402 9.636 17.322 10.292 17.322 11.004L16.23 10.872C16.23 9.472 16.466 8.32 16.938 7.416C17.418 6.504 18.062 5.832 18.87 5.4C19.678 4.96 20.586 4.74 21.594 4.74C22.306 4.74 22.942 4.844 23.502 5.052C24.07 5.26 24.562 5.556 24.978 5.94C25.394 6.316 25.738 6.764 26.01 7.284C26.282 7.796 26.482 8.36 26.61 8.976C26.746 9.592 26.814 10.236 26.814 10.908V18H25.422ZM15.93 18V0.719999H17.19V10.704H17.322V18H15.93ZM35.2622 18.36C34.0222 18.36 32.9502 18.084 32.0462 17.532C31.1422 16.972 30.4422 16.184 29.9462 15.168C29.4502 14.144 29.2022 12.936 29.2022 11.544C29.2022 10.128 29.4462 8.908 29.9342 7.884C30.4302 6.852 31.1262 6.06 32.0222 5.508C32.9262 4.956 33.9982 4.68 35.2382 4.68C36.4942 4.68 37.5662 4.968 38.4542 5.544C39.3502 6.112 40.0302 6.936 40.4942 8.016C40.9662 9.096 41.1902 10.396 41.1662 11.916H39.7262V11.436C39.6862 9.66 39.2862 8.308 38.5262 7.38C37.7662 6.452 36.6782 5.988 35.2622 5.988C33.7982 5.988 32.6662 6.472 31.8662 7.44C31.0742 8.4 30.6782 9.76 30.6782 11.52C30.6782 13.264 31.0742 14.616 31.8662 15.576C32.6662 16.536 33.7902 17.016 35.2382 17.016C36.2382 17.016 37.1102 16.784 37.8542 16.32C38.6062 15.848 39.2022 15.176 39.6422 14.304L40.8902 14.856C40.3702 15.976 39.6182 16.84 38.6342 17.448C37.6502 18.056 36.5262 18.36 35.2622 18.36ZM30.1502 11.916V10.668H40.3862V11.916H30.1502ZM55.5253 18.36C53.8053 18.36 52.3613 17.98 51.1933 17.22C50.0253 16.452 49.1453 15.392 48.5533 14.04C47.9613 12.688 47.6653 11.128 47.6653 9.36C47.6653 7.592 47.9613 6.032 48.5533 4.68C49.1453 3.328 50.0253 2.272 51.1933 1.512C52.3613 0.743999 53.8053 0.36 55.5253 0.36C57.5333 0.36 59.1613 0.88 60.4093 1.92C61.6653 2.96 62.5173 4.352 62.9653 6.096L61.5373 6.444C61.1693 4.996 60.4813 3.848 59.4733 3C58.4733 2.144 57.1573 1.716 55.5253 1.716C54.1093 1.716 52.9293 2.04 51.9853 2.688C51.0493 3.336 50.3413 4.236 49.8613 5.388C49.3893 6.54 49.1493 7.864 49.1413 9.36C49.1253 10.856 49.3533 12.18 49.8253 13.332C50.3053 14.476 51.0213 15.376 51.9733 16.032C52.9253 16.68 54.1093 17.004 55.5253 17.004C57.1573 17.004 58.4733 16.576 59.4733 15.72C60.4813 14.864 61.1693 13.716 61.5373 12.276L62.9653 12.624C62.5173 14.368 61.6653 15.76 60.4093 16.8C59.1613 17.84 57.5333 18.36 55.5253 18.36ZM70.9101 18.36C69.6221 18.36 68.5301 18.068 67.6341 17.484C66.7381 16.9 66.0541 16.092 65.5821 15.06C65.1101 14.028 64.8741 12.84 64.8741 11.496C64.8741 10.144 65.1141 8.956 65.5941 7.932C66.0741 6.9 66.7621 6.1 67.6581 5.532C68.5621 4.964 69.6461 4.68 70.9101 4.68C72.1981 4.68 73.2901 4.972 74.1861 5.556C75.0901 6.132 75.7741 6.932 76.2381 7.956C76.7101 8.98 76.9461 10.16 76.9461 11.496C76.9461 12.864 76.7101 14.064 76.2381 15.096C75.7661 16.12 75.0781 16.92 74.1741 17.496C73.2701 18.072 72.1821 18.36 70.9101 18.36ZM70.9101 17.016C72.4381 17.016 73.5781 16.504 74.3301 15.48C75.0901 14.456 75.4701 13.128 75.4701 11.496C75.4701 9.832 75.0901 8.504 74.3301 7.512C73.5701 6.52 72.4301 6.024 70.9101 6.024C69.8781 6.024 69.0261 6.26 68.3541 6.732C67.6821 7.196 67.1781 7.84 66.8421 8.664C66.5141 9.48 66.3501 10.424 66.3501 11.496C66.3501 13.16 66.7341 14.496 67.5021 15.504C68.2781 16.512 69.4141 17.016 70.9101 17.016ZM83.3303 18.36C82.3303 18.36 81.4983 18.184 80.8343 17.832C80.1783 17.48 79.6863 17.016 79.3583 16.44C79.0303 15.856 78.8663 15.224 78.8663 14.544C78.8663 13.808 79.0183 13.192 79.3223 12.696C79.6343 12.2 80.0463 11.8 80.5583 11.496C81.0783 11.192 81.6503 10.964 82.2743 10.812C82.9863 10.652 83.7543 10.516 84.5783 10.404C85.4023 10.284 86.1863 10.18 86.9303 10.092C87.6823 10.004 88.2943 9.928 88.7663 9.864L88.2623 10.164C88.2943 8.764 88.0303 7.724 87.4703 7.044C86.9183 6.356 85.9423 6.012 84.5423 6.012C83.5583 6.012 82.7463 6.236 82.1063 6.684C81.4743 7.124 81.0303 7.808 80.7743 8.736L79.3583 8.34C79.6543 7.164 80.2503 6.26 81.1463 5.628C82.0423 4.996 83.1903 4.68 84.5903 4.68C85.7823 4.68 86.7823 4.912 87.5903 5.376C88.4063 5.84 88.9743 6.492 89.2943 7.332C89.4303 7.676 89.5223 8.08 89.5703 8.544C89.6183 9 89.6423 9.46 89.6423 9.924V18H88.3823V14.592L88.8503 14.712C88.4583 15.88 87.7743 16.78 86.7983 17.412C85.8223 18.044 84.6663 18.36 83.3303 18.36ZM83.4023 17.088C84.2823 17.088 85.0543 16.932 85.7183 16.62C86.3823 16.3 86.9183 15.856 87.3263 15.288C87.7423 14.712 88.0063 14.036 88.1183 13.26C88.1983 12.828 88.2423 12.36 88.2503 11.856C88.2583 11.352 88.2623 10.98 88.2623 10.74L88.8623 11.124C88.3423 11.188 87.7183 11.256 86.9903 11.328C86.2703 11.4 85.5343 11.488 84.7823 11.592C84.0303 11.696 83.3503 11.828 82.7423 11.988C82.3663 12.092 81.9863 12.244 81.6023 12.444C81.2263 12.636 80.9103 12.904 80.6543 13.248C80.4063 13.592 80.2823 14.028 80.2823 14.556C80.2823 14.948 80.3783 15.34 80.5703 15.732C80.7703 16.124 81.0983 16.448 81.5543 16.704C82.0103 16.96 82.6263 17.088 83.4023 17.088ZM99.6341 18C98.9461 18.152 98.2661 18.208 97.5941 18.168C96.9221 18.136 96.3221 17.988 95.7941 17.724C95.2741 17.452 94.8821 17.036 94.6181 16.476C94.4021 16.02 94.2821 15.56 94.2581 15.096C94.2341 14.632 94.2221 14.1 94.2221 13.5V1.44H95.6141V13.476C95.6141 14.02 95.6181 14.472 95.6261 14.832C95.6421 15.184 95.7261 15.508 95.8781 15.804C96.1661 16.356 96.6221 16.692 97.2461 16.812C97.8701 16.924 98.6661 16.904 99.6341 16.752V18ZM91.3181 6.3V5.04H99.6341V6.3H91.3181ZM112.59 18.36C111.422 18.36 110.434 18.056 109.626 17.448C108.818 16.84 108.202 16.02 107.778 14.988C107.354 13.956 107.142 12.792 107.142 11.496C107.142 10.192 107.354 9.028 107.778 8.004C108.202 6.972 108.83 6.16 109.662 5.568C110.494 4.976 111.514 4.68 112.722 4.68C113.898 4.68 114.902 4.98 115.734 5.58C116.566 6.18 117.198 6.996 117.63 8.028C118.07 9.06 118.29 10.216 118.29 11.496C118.29 12.792 118.066 13.96 117.618 15C117.178 16.032 116.534 16.852 115.686 17.46C114.846 18.06 113.814 18.36 112.59 18.36ZM106.914 18V0.719999H108.294V8.016H108.174V18H106.914ZM112.506 17.04C113.458 17.04 114.25 16.796 114.882 16.308C115.522 15.82 116.002 15.16 116.322 14.328C116.65 13.488 116.814 12.544 116.814 11.496C116.814 10.456 116.654 9.524 116.334 8.7C116.022 7.868 115.546 7.212 114.906 6.732C114.274 6.244 113.466 6 112.482 6C111.53 6 110.734 6.236 110.094 6.708C109.454 7.172 108.974 7.82 108.654 8.652C108.334 9.484 108.174 10.432 108.174 11.496C108.174 12.552 108.33 13.5 108.642 14.34C108.962 15.172 109.442 15.832 110.082 16.32C110.73 16.8 111.538 17.04 112.506 17.04ZM122.287 23.76L124.807 16.98L124.831 18.996L119.155 5.04H120.631L125.503 17.16H124.735L129.163 5.04H130.615L123.727 23.76H122.287ZM137.594 18V0.719999H138.974V8.928L147.194 0.719999H149.018L140.75 9.024L149.738 18H147.89L138.974 9.168V18H137.594ZM155.166 18.36C154.166 18.36 153.334 18.184 152.67 17.832C152.014 17.48 151.522 17.016 151.194 16.44C150.866 15.856 150.702 15.224 150.702 14.544C150.702 13.808 150.854 13.192 151.158 12.696C151.47 12.2 151.882 11.8 152.394 11.496C152.914 11.192 153.486 10.964 154.11 10.812C154.822 10.652 155.59 10.516 156.414 10.404C157.238 10.284 158.022 10.18 158.766 10.092C159.518 10.004 160.13 9.928 160.602 9.864L160.098 10.164C160.13 8.764 159.866 7.724 159.306 7.044C158.754 6.356 157.778 6.012 156.378 6.012C155.394 6.012 154.582 6.236 153.942 6.684C153.31 7.124 152.866 7.808 152.61 8.736L151.194 8.34C151.49 7.164 152.086 6.26 152.982 5.628C153.878 4.996 155.026 4.68 156.426 4.68C157.618 4.68 158.618 4.912 159.426 5.376C160.242 5.84 160.81 6.492 161.13 7.332C161.266 7.676 161.358 8.08 161.406 8.544C161.454 9 161.478 9.46 161.478 9.924V18H160.218V14.592L160.686 14.712C160.294 15.88 159.61 16.78 158.634 17.412C157.658 18.044 156.502 18.36 155.166 18.36ZM155.238 17.088C156.118 17.088 156.89 16.932 157.554 16.62C158.218 16.3 158.754 15.856 159.162 15.288C159.578 14.712 159.842 14.036 159.954 13.26C160.034 12.828 160.078 12.36 160.086 11.856C160.094 11.352 160.098 10.98 160.098 10.74L160.698 11.124C160.178 11.188 159.554 11.256 158.826 11.328C158.106 11.4 157.37 11.488 156.618 11.592C155.866 11.696 155.186 11.828 154.578 11.988C154.202 12.092 153.822 12.244 153.438 12.444C153.062 12.636 152.746 12.904 152.49 13.248C152.242 13.592 152.118 14.028 152.118 14.556C152.118 14.948 152.214 15.34 152.406 15.732C152.606 16.124 152.934 16.448 153.39 16.704C153.846 16.96 154.462 17.088 155.238 17.088ZM171.47 18C170.782 18.152 170.102 18.208 169.43 18.168C168.758 18.136 168.158 17.988 167.63 17.724C167.11 17.452 166.718 17.036 166.454 16.476C166.238 16.02 166.118 15.56 166.094 15.096C166.07 14.632 166.058 14.1 166.058 13.5V1.44H167.45V13.476C167.45 14.02 167.454 14.472 167.462 14.832C167.478 15.184 167.562 15.508 167.714 15.804C168.002 16.356 168.458 16.692 169.082 16.812C169.706 16.924 170.502 16.904 171.47 16.752V18ZM163.154 6.3V5.04H171.47V6.3H163.154ZM175.49 23.76L178.01 16.98L178.034 18.996L172.358 5.04H173.834L178.706 17.16H177.938L182.366 5.04H183.818L176.93 23.76H175.49ZM189.268 18.36C188.268 18.36 187.436 18.184 186.772 17.832C186.116 17.48 185.624 17.016 185.296 16.44C184.968 15.856 184.804 15.224 184.804 14.544C184.804 13.808 184.956 13.192 185.26 12.696C185.572 12.2 185.984 11.8 186.496 11.496C187.016 11.192 187.588 10.964 188.212 10.812C188.924 10.652 189.692 10.516 190.516 10.404C191.34 10.284 192.124 10.18 192.868 10.092C193.62 10.004 194.232 9.928 194.704 9.864L194.2 10.164C194.232 8.764 193.968 7.724 193.408 7.044C192.856 6.356 191.88 6.012 190.48 6.012C189.496 6.012 188.684 6.236 188.044 6.684C187.412 7.124 186.968 7.808 186.712 8.736L185.296 8.34C185.592 7.164 186.188 6.26 187.084 5.628C187.98 4.996 189.128 4.68 190.528 4.68C191.72 4.68 192.72 4.912 193.528 5.376C194.344 5.84 194.912 6.492 195.232 7.332C195.368 7.676 195.46 8.08 195.508 8.544C195.556 9 195.58 9.46 195.58 9.924V18H194.32V14.592L194.788 14.712C194.396 15.88 193.712 16.78 192.736 17.412C191.76 18.044 190.604 18.36 189.268 18.36ZM189.34 17.088C190.22 17.088 190.992 16.932 191.656 16.62C192.32 16.3 192.856 15.856 193.264 15.288C193.68 14.712 193.944 14.036 194.056 13.26C194.136 12.828 194.18 12.36 194.188 11.856C194.196 11.352 194.2 10.98 194.2 10.74L194.8 11.124C194.28 11.188 193.656 11.256 192.928 11.328C192.208 11.4 191.472 11.488 190.72 11.592C189.968 11.696 189.288 11.828 188.68 11.988C188.304 12.092 187.924 12.244 187.54 12.444C187.164 12.636 186.848 12.904 186.592 13.248C186.344 13.592 186.22 14.028 186.22 14.556C186.22 14.948 186.316 15.34 186.508 15.732C186.708 16.124 187.036 16.448 187.492 16.704C187.948 16.96 188.564 17.088 189.34 17.088ZM209.368 18.36C208.184 18.36 207.116 18.164 206.164 17.772C205.22 17.38 204.436 16.824 203.812 16.104C203.196 15.384 202.784 14.528 202.576 13.536L203.992 13.296C204.288 14.448 204.92 15.356 205.888 16.02C206.864 16.684 208.036 17.016 209.404 17.016C210.332 17.016 211.152 16.868 211.864 16.572C212.576 16.276 213.132 15.86 213.532 15.324C213.932 14.78 214.132 14.148 214.132 13.428C214.132 12.908 214.036 12.472 213.844 12.12C213.66 11.768 213.42 11.48 213.124 11.256C212.828 11.024 212.512 10.84 212.176 10.704C211.84 10.56 211.524 10.444 211.228 10.356L206.884 9.06C206.308 8.892 205.792 8.684 205.336 8.436C204.888 8.18 204.508 7.888 204.196 7.56C203.892 7.224 203.656 6.844 203.488 6.42C203.328 5.996 203.248 5.524 203.248 5.004C203.248 4.076 203.496 3.264 203.992 2.568C204.488 1.872 205.168 1.332 206.032 0.947999C206.904 0.555999 207.904 0.36 209.032 0.36C210.168 0.367999 211.188 0.579999 212.092 0.995999C212.996 1.404 213.736 1.984 214.312 2.736C214.896 3.488 215.272 4.38 215.44 5.412L214.012 5.664C213.9 4.872 213.612 4.18 213.148 3.588C212.692 2.996 212.108 2.536 211.396 2.208C210.684 1.88 209.892 1.716 209.02 1.716C208.18 1.708 207.436 1.848 206.788 2.136C206.148 2.424 205.644 2.812 205.276 3.3C204.908 3.788 204.724 4.34 204.724 4.956C204.724 5.596 204.896 6.108 205.24 6.492C205.592 6.868 206.02 7.164 206.524 7.38C207.036 7.596 207.524 7.772 207.988 7.908L211.468 8.94C211.796 9.036 212.188 9.172 212.644 9.348C213.1 9.524 213.548 9.776 213.988 10.104C214.428 10.424 214.792 10.852 215.08 11.388C215.376 11.916 215.524 12.58 215.524 13.38C215.524 14.156 215.376 14.852 215.08 15.468C214.784 16.084 214.36 16.608 213.808 17.04C213.256 17.464 212.604 17.788 211.852 18.012C211.1 18.244 210.272 18.36 209.368 18.36ZM218.201 2.424V0.659999H219.581V2.424H218.201ZM218.201 18V5.04H219.581V18H218.201ZM223.428 18V0.36H224.808V18H223.428ZM233.706 18.36C232.41 18.36 231.318 18.072 230.43 17.496C229.542 16.912 228.866 16.108 228.402 15.084C227.946 14.052 227.71 12.864 227.694 11.52C227.71 10.152 227.95 8.956 228.414 7.932C228.886 6.9 229.566 6.1 230.454 5.532C231.342 4.964 232.43 4.68 233.718 4.68C234.974 4.68 236.078 4.984 237.03 5.592C237.99 6.192 238.654 7.02 239.022 8.076L237.678 8.568C237.35 7.76 236.834 7.136 236.13 6.696C235.426 6.248 234.618 6.024 233.706 6.024C232.682 6.024 231.838 6.26 231.174 6.732C230.51 7.196 230.014 7.84 229.686 8.664C229.358 9.488 229.186 10.44 229.17 11.52C229.194 13.176 229.582 14.508 230.334 15.516C231.094 16.516 232.218 17.016 233.706 17.016C234.626 17.016 235.422 16.804 236.094 16.38C236.774 15.956 237.294 15.34 237.654 14.532L239.022 15C238.518 16.096 237.814 16.932 236.91 17.508C236.006 18.076 234.938 18.36 233.706 18.36ZM251.031 18V11.256C251.031 10.44 250.947 9.712 250.779 9.072C250.619 8.432 250.371 7.888 250.035 7.44C249.707 6.992 249.291 6.652 248.787 6.42C248.291 6.188 247.703 6.072 247.023 6.072C246.319 6.072 245.707 6.196 245.187 6.444C244.675 6.684 244.251 7.024 243.915 7.464C243.587 7.904 243.339 8.428 243.171 9.036C243.011 9.636 242.931 10.292 242.931 11.004L241.839 10.872C241.839 9.472 242.075 8.32 242.547 7.416C243.027 6.504 243.671 5.832 244.479 5.4C245.287 4.96 246.195 4.74 247.203 4.74C247.915 4.74 248.551 4.844 249.111 5.052C249.679 5.26 250.171 5.556 250.587 5.94C251.003 6.316 251.347 6.764 251.619 7.284C251.891 7.796 252.091 8.36 252.219 8.976C252.355 9.592 252.423 10.236 252.423 10.908V18H251.031ZM241.539 18V0.719999H242.799V10.704H242.931V18H241.539ZM260.872 18.36C259.632 18.36 258.56 18.084 257.656 17.532C256.752 16.972 256.052 16.184 255.556 15.168C255.06 14.144 254.812 12.936 254.812 11.544C254.812 10.128 255.056 8.908 255.544 7.884C256.04 6.852 256.736 6.06 257.632 5.508C258.536 4.956 259.608 4.68 260.848 4.68C262.104 4.68 263.176 4.968 264.064 5.544C264.96 6.112 265.64 6.936 266.104 8.016C266.576 9.096 266.8 10.396 266.776 11.916H265.336V11.436C265.296 9.66 264.896 8.308 264.136 7.38C263.376 6.452 262.288 5.988 260.872 5.988C259.408 5.988 258.276 6.472 257.476 7.44C256.684 8.4 256.288 9.76 256.288 11.52C256.288 13.264 256.684 14.616 257.476 15.576C258.276 16.536 259.4 17.016 260.848 17.016C261.848 17.016 262.72 16.784 263.464 16.32C264.216 15.848 264.812 15.176 265.252 14.304L266.5 14.856C265.98 15.976 265.228 16.84 264.244 17.448C263.26 18.056 262.136 18.36 260.872 18.36ZM255.76 11.916V10.668H265.996V11.916H255.76ZM278.57 18V11.256C278.57 10.44 278.486 9.712 278.318 9.072C278.158 8.432 277.91 7.888 277.574 7.44C277.246 6.992 276.83 6.652 276.326 6.42C275.83 6.188 275.242 6.072 274.562 6.072C273.858 6.072 273.246 6.196 272.726 6.444C272.214 6.684 271.79 7.024 271.454 7.464C271.126 7.904 270.878 8.428 270.71 9.036C270.55 9.636 270.47 10.292 270.47 11.004L269.378 10.872C269.378 9.472 269.614 8.32 270.086 7.416C270.566 6.504 271.21 5.832 272.018 5.4C272.826 4.96 273.734 4.74 274.742 4.74C275.454 4.74 276.09 4.844 276.65 5.052C277.218 5.26 277.71 5.556 278.126 5.94C278.542 6.316 278.886 6.764 279.158 7.284C279.43 7.796 279.63 8.36 279.758 8.976C279.894 9.592 279.962 10.236 279.962 10.908V18H278.57ZM269.078 18V5.04H270.338V7.956H270.47V18H269.078ZM283.071 18V0.719999H284.463V11.28L290.595 5.04H292.527L286.107 11.52L293.439 18H291.291L284.463 11.76V18H283.071ZM299.73 18.36C298.442 18.36 297.35 18.068 296.454 17.484C295.558 16.9 294.874 16.092 294.402 15.06C293.93 14.028 293.694 12.84 293.694 11.496C293.694 10.144 293.934 8.956 294.414 7.932C294.894 6.9 295.582 6.1 296.478 5.532C297.382 4.964 298.466 4.68 299.73 4.68C301.018 4.68 302.11 4.972 303.006 5.556C303.91 6.132 304.594 6.932 305.058 7.956C305.53 8.98 305.766 10.16 305.766 11.496C305.766 12.864 305.53 14.064 305.058 15.096C304.586 16.12 303.898 16.92 302.994 17.496C302.09 18.072 301.002 18.36 299.73 18.36ZM299.73 17.016C301.258 17.016 302.398 16.504 303.15 15.48C303.91 14.456 304.29 13.128 304.29 11.496C304.29 9.832 303.91 8.504 303.15 7.512C302.39 6.52 301.25 6.024 299.73 6.024C298.698 6.024 297.846 6.26 297.174 6.732C296.502 7.196 295.998 7.84 295.662 8.664C295.334 9.48 295.17 10.424 295.17 11.496C295.17 13.16 295.554 14.496 296.322 15.504C297.098 16.512 298.234 17.016 299.73 17.016Z" fill="#F4F4F4"/>
</svg>
