<svg width="200" height="19" viewBox="0 0 200 19" fill="none" xmlns="http://www.w3.org/2000/svg">
<path d="M0.68 18V0.719999H3.572V8.736L10.472 0.719999H14.024L6.596 9.192L14.528 18H10.856L3.572 9.936V18H0.68ZM20.7543 18.36C19.1543 18.36 17.8543 18 16.8543 17.28C15.8543 16.56 15.2463 15.548 15.0303 14.244L17.9823 13.788C18.1343 14.428 18.4703 14.932 18.9903 15.3C19.5103 15.668 20.1663 15.852 20.9583 15.852C21.6543 15.852 22.1903 15.716 22.5663 15.444C22.9503 15.164 23.1423 14.784 23.1423 14.304C23.1423 14.008 23.0703 13.772 22.9263 13.596C22.7903 13.412 22.4863 13.236 22.0143 13.068C21.5423 12.9 20.8183 12.688 19.8423 12.432C18.7543 12.144 17.8903 11.836 17.2503 11.508C16.6103 11.172 16.1503 10.776 15.8703 10.32C15.5903 9.864 15.4503 9.312 15.4503 8.664C15.4503 7.856 15.6623 7.152 16.0863 6.552C16.5103 5.952 17.1023 5.492 17.8623 5.172C18.6223 4.844 19.5183 4.68 20.5503 4.68C21.5583 4.68 22.4503 4.836 23.2263 5.148C24.0103 5.46 24.6423 5.904 25.1223 6.48C25.6023 7.056 25.8983 7.732 26.0103 8.508L23.0583 9.036C22.9863 8.484 22.7343 8.048 22.3023 7.728C21.8783 7.408 21.3103 7.228 20.5983 7.188C19.9183 7.148 19.3703 7.252 18.9543 7.5C18.5383 7.74 18.3303 8.08 18.3303 8.52C18.3303 8.768 18.4143 8.98 18.5823 9.156C18.7503 9.332 19.0863 9.508 19.5903 9.684C20.1023 9.86 20.8623 10.076 21.8703 10.332C22.9023 10.596 23.7263 10.9 24.3423 11.244C24.9663 11.58 25.4143 11.984 25.6863 12.456C25.9663 12.928 26.1063 13.5 26.1063 14.172C26.1063 15.476 25.6303 16.5 24.6783 17.244C23.7343 17.988 22.4263 18.36 20.7543 18.36ZM34.6267 18.36C33.3147 18.36 32.1627 18.076 31.1707 17.508C30.1787 16.94 29.4027 16.152 28.8427 15.144C28.2907 14.136 28.0147 12.976 28.0147 11.664C28.0147 10.248 28.2867 9.02 28.8307 7.98C29.3747 6.932 30.1307 6.12 31.0987 5.544C32.0667 4.968 33.1867 4.68 34.4587 4.68C35.8027 4.68 36.9427 4.996 37.8787 5.628C38.8227 6.252 39.5227 7.136 39.9787 8.28C40.4347 9.424 40.6067 10.772 40.4947 12.324H37.6267V11.268C37.6187 9.86 37.3707 8.832 36.8827 8.184C36.3947 7.536 35.6267 7.212 34.5787 7.212C33.3947 7.212 32.5147 7.58 31.9387 8.316C31.3627 9.044 31.0747 10.112 31.0747 11.52C31.0747 12.832 31.3627 13.848 31.9387 14.568C32.5147 15.288 33.3547 15.648 34.4587 15.648C35.1707 15.648 35.7827 15.492 36.2947 15.18C36.8147 14.86 37.2147 14.4 37.4947 13.8L40.3507 14.664C39.8547 15.832 39.0867 16.74 38.0467 17.388C37.0147 18.036 35.8747 18.36 34.6267 18.36ZM30.1627 12.324V10.14H39.0787V12.324H30.1627ZM51.7846 18V11.76C51.7846 11.352 51.7566 10.9 51.7006 10.404C51.6446 9.908 51.5126 9.432 51.3046 8.976C51.1046 8.512 50.8006 8.132 50.3926 7.836C49.9926 7.54 49.4486 7.392 48.7606 7.392C48.3926 7.392 48.0286 7.452 47.6686 7.572C47.3086 7.692 46.9806 7.9 46.6846 8.196C46.3966 8.484 46.1646 8.884 45.9886 9.396C45.8126 9.9 45.7246 10.548 45.7246 11.34L44.0086 10.608C44.0086 9.504 44.2206 8.504 44.6446 7.608C45.0766 6.712 45.7086 6 46.5406 5.472C47.3726 4.936 48.3966 4.668 49.6126 4.668C50.5726 4.668 51.3646 4.828 51.9886 5.148C52.6126 5.468 53.1086 5.876 53.4766 6.372C53.8446 6.868 54.1166 7.396 54.2926 7.956C54.4686 8.516 54.5806 9.048 54.6286 9.552C54.6846 10.048 54.7126 10.452 54.7126 10.764V18H51.7846ZM42.7966 18V5.04H45.3766V9.06H45.7246V18H42.7966ZM58.0841 3.072V0.42H60.9761V3.072H58.0841ZM58.0841 18V5.04H60.9761V18H58.0841ZM68.1946 18.36C67.2586 18.36 66.4666 18.184 65.8186 17.832C65.1706 17.472 64.6786 16.996 64.3426 16.404C64.0146 15.812 63.8506 15.16 63.8506 14.448C63.8506 13.824 63.9546 13.264 64.1626 12.768C64.3706 12.264 64.6906 11.832 65.1226 11.472C65.5546 11.104 66.1146 10.804 66.8026 10.572C67.3226 10.404 67.9306 10.252 68.6266 10.116C69.3306 9.98 70.0906 9.856 70.9066 9.744C71.7306 9.624 72.5906 9.496 73.4866 9.36L72.4546 9.948C72.4626 9.052 72.2626 8.392 71.8546 7.968C71.4466 7.544 70.7586 7.332 69.7906 7.332C69.2066 7.332 68.6426 7.468 68.0986 7.74C67.5546 8.012 67.1746 8.48 66.9586 9.144L64.3186 8.316C64.6386 7.22 65.2466 6.34 66.1426 5.676C67.0466 5.012 68.2626 4.68 69.7906 4.68C70.9426 4.68 71.9546 4.868 72.8266 5.244C73.7066 5.62 74.3586 6.236 74.7826 7.092C75.0146 7.548 75.1546 8.016 75.2026 8.496C75.2506 8.968 75.2746 9.484 75.2746 10.044V18H72.7426V15.192L73.1626 15.648C72.5786 16.584 71.8946 17.272 71.1106 17.712C70.3346 18.144 69.3626 18.36 68.1946 18.36ZM68.7706 16.056C69.4266 16.056 69.9866 15.94 70.4506 15.708C70.9146 15.476 71.2826 15.192 71.5546 14.856C71.8346 14.52 72.0226 14.204 72.1186 13.908C72.2706 13.54 72.3546 13.12 72.3706 12.648C72.3946 12.168 72.4066 11.78 72.4066 11.484L73.2946 11.748C72.4226 11.884 71.6746 12.004 71.0506 12.108C70.4266 12.212 69.8906 12.312 69.4426 12.408C68.9946 12.496 68.5986 12.596 68.2546 12.708C67.9186 12.828 67.6346 12.968 67.4026 13.128C67.1706 13.288 66.9906 13.472 66.8626 13.68C66.7426 13.888 66.6826 14.132 66.6826 14.412C66.6826 14.732 66.7626 15.016 66.9226 15.264C67.0826 15.504 67.3146 15.696 67.6186 15.84C67.9306 15.984 68.3146 16.056 68.7706 16.056ZM89.5994 18.36C88.3354 18.36 87.1954 18.14 86.1794 17.7C85.1714 17.26 84.3394 16.632 83.6834 15.816C83.0354 14.992 82.6234 14.016 82.4474 12.888L85.4474 12.432C85.7034 13.456 86.2274 14.248 87.0194 14.808C87.8194 15.368 88.7394 15.648 89.7794 15.648C90.3954 15.648 90.9754 15.552 91.5194 15.36C92.0634 15.168 92.5034 14.888 92.8394 14.52C93.1834 14.152 93.3554 13.7 93.3554 13.164C93.3554 12.924 93.3154 12.704 93.2354 12.504C93.1554 12.296 93.0354 12.112 92.8754 11.952C92.7234 11.792 92.5234 11.648 92.2754 11.52C92.0354 11.384 91.7554 11.268 91.4354 11.172L86.9714 9.852C86.5874 9.74 86.1714 9.592 85.7234 9.408C85.2834 9.216 84.8634 8.956 84.4634 8.628C84.0714 8.292 83.7474 7.868 83.4914 7.356C83.2434 6.836 83.1194 6.196 83.1194 5.436C83.1194 4.324 83.3994 3.392 83.9594 2.64C84.5274 1.88 85.2874 1.312 86.2394 0.935999C87.1994 0.559999 88.2634 0.375999 89.4314 0.383999C90.6154 0.391999 91.6714 0.595999 92.5994 0.995999C93.5274 1.388 94.3034 1.96 94.9274 2.712C95.5514 3.464 95.9914 4.372 96.2474 5.436L93.1394 5.976C93.0114 5.368 92.7634 4.852 92.3954 4.428C92.0354 3.996 91.5914 3.668 91.0634 3.444C90.5434 3.22 89.9874 3.1 89.3954 3.084C88.8194 3.076 88.2834 3.164 87.7874 3.348C87.2994 3.524 86.9034 3.78 86.5994 4.116C86.3034 4.452 86.1554 4.844 86.1554 5.292C86.1554 5.716 86.2834 6.064 86.5394 6.336C86.7954 6.6 87.1114 6.812 87.4874 6.972C87.8714 7.124 88.2594 7.252 88.6514 7.356L91.7474 8.22C92.1714 8.332 92.6474 8.484 93.1754 8.676C93.7034 8.868 94.2114 9.136 94.6994 9.48C95.1874 9.824 95.5874 10.276 95.8994 10.836C96.2194 11.396 96.3794 12.108 96.3794 12.972C96.3794 13.868 96.1914 14.656 95.8154 15.336C95.4474 16.008 94.9474 16.568 94.3154 17.016C93.6834 17.464 92.9594 17.8 92.1434 18.024C91.3354 18.248 90.4874 18.36 89.5994 18.36ZM104.605 18.36C103.269 18.36 102.129 18.064 101.185 17.472C100.241 16.872 99.5169 16.056 99.0129 15.024C98.5169 13.992 98.2649 12.824 98.2569 11.52C98.2649 10.192 98.5249 9.016 99.0369 7.992C99.5569 6.96 100.293 6.152 101.245 5.568C102.197 4.976 103.329 4.68 104.641 4.68C106.113 4.68 107.357 5.052 108.373 5.796C109.397 6.532 110.065 7.54 110.377 8.82L107.497 9.6C107.273 8.904 106.901 8.364 106.381 7.98C105.861 7.588 105.269 7.392 104.605 7.392C103.853 7.392 103.233 7.572 102.745 7.932C102.257 8.284 101.897 8.772 101.665 9.396C101.433 10.02 101.317 10.728 101.317 11.52C101.317 12.752 101.593 13.748 102.145 14.508C102.697 15.268 103.517 15.648 104.605 15.648C105.373 15.648 105.977 15.472 106.417 15.12C106.865 14.768 107.201 14.26 107.425 13.596L110.377 14.256C109.977 15.576 109.277 16.592 108.277 17.304C107.277 18.008 106.053 18.36 104.605 18.36ZM121.746 18V11.76C121.746 11.352 121.718 10.9 121.662 10.404C121.606 9.908 121.474 9.432 121.266 8.976C121.066 8.512 120.762 8.132 120.354 7.836C119.954 7.54 119.41 7.392 118.722 7.392C118.354 7.392 117.99 7.452 117.63 7.572C117.27 7.692 116.942 7.9 116.646 8.196C116.358 8.484 116.126 8.884 115.95 9.396C115.774 9.9 115.686 10.548 115.686 11.34L113.97 10.608C113.97 9.504 114.182 8.504 114.606 7.608C115.038 6.712 115.67 6 116.502 5.472C117.334 4.936 118.358 4.668 119.574 4.668C120.534 4.668 121.326 4.828 121.95 5.148C122.574 5.468 123.07 5.876 123.438 6.372C123.806 6.868 124.078 7.396 124.254 7.956C124.43 8.516 124.542 9.048 124.59 9.552C124.646 10.048 124.674 10.452 124.674 10.764V18H121.746ZM112.758 18V0.719999H115.338V9.816H115.686V18H112.758ZM136.769 18V11.76C136.769 11.352 136.741 10.9 136.685 10.404C136.629 9.908 136.497 9.432 136.289 8.976C136.089 8.512 135.785 8.132 135.377 7.836C134.977 7.54 134.433 7.392 133.745 7.392C133.377 7.392 133.013 7.452 132.653 7.572C132.293 7.692 131.965 7.9 131.669 8.196C131.381 8.484 131.149 8.884 130.973 9.396C130.797 9.9 130.709 10.548 130.709 11.34L128.993 10.608C128.993 9.504 129.205 8.504 129.629 7.608C130.061 6.712 130.693 6 131.525 5.472C132.357 4.936 133.381 4.668 134.597 4.668C135.557 4.668 136.349 4.828 136.973 5.148C137.597 5.468 138.093 5.876 138.461 6.372C138.829 6.868 139.101 7.396 139.277 7.956C139.453 8.516 139.565 9.048 139.613 9.552C139.669 10.048 139.697 10.452 139.697 10.764V18H136.769ZM127.781 18V5.04H130.361V9.06H130.709V18H127.781ZM146.452 18.36C145.516 18.36 144.724 18.184 144.076 17.832C143.428 17.472 142.936 16.996 142.6 16.404C142.272 15.812 142.108 15.16 142.108 14.448C142.108 13.824 142.212 13.264 142.42 12.768C142.628 12.264 142.948 11.832 143.38 11.472C143.812 11.104 144.372 10.804 145.06 10.572C145.58 10.404 146.188 10.252 146.884 10.116C147.588 9.98 148.348 9.856 149.164 9.744C149.988 9.624 150.848 9.496 151.744 9.36L150.712 9.948C150.72 9.052 150.52 8.392 150.112 7.968C149.704 7.544 149.016 7.332 148.048 7.332C147.464 7.332 146.9 7.468 146.356 7.74C145.812 8.012 145.432 8.48 145.216 9.144L142.576 8.316C142.896 7.22 143.504 6.34 144.4 5.676C145.304 5.012 146.52 4.68 148.048 4.68C149.2 4.68 150.212 4.868 151.084 5.244C151.964 5.62 152.616 6.236 153.04 7.092C153.272 7.548 153.412 8.016 153.46 8.496C153.508 8.968 153.532 9.484 153.532 10.044V18H151V15.192L151.42 15.648C150.836 16.584 150.152 17.272 149.368 17.712C148.592 18.144 147.62 18.36 146.452 18.36ZM147.028 16.056C147.684 16.056 148.244 15.94 148.708 15.708C149.172 15.476 149.54 15.192 149.812 14.856C150.092 14.52 150.28 14.204 150.376 13.908C150.528 13.54 150.612 13.12 150.628 12.648C150.652 12.168 150.664 11.78 150.664 11.484L151.552 11.748C150.68 11.884 149.932 12.004 149.308 12.108C148.684 12.212 148.148 12.312 147.7 12.408C147.252 12.496 146.856 12.596 146.512 12.708C146.176 12.828 145.892 12.968 145.66 13.128C145.428 13.288 145.248 13.472 145.12 13.68C145 13.888 144.94 14.132 144.94 14.412C144.94 14.732 145.02 15.016 145.18 15.264C145.34 15.504 145.572 15.696 145.876 15.84C146.188 15.984 146.572 16.056 147.028 16.056ZM156.897 3.072V0.42H159.789V3.072H156.897ZM156.897 18V5.04H159.789V18H156.897ZM168.579 18.36C167.387 18.36 166.347 18.06 165.459 17.46C164.571 16.86 163.883 16.044 163.395 15.012C162.907 13.98 162.663 12.816 162.663 11.52C162.663 10.208 162.907 9.04 163.395 8.016C163.891 6.984 164.591 6.172 165.495 5.58C166.399 4.98 167.463 4.68 168.687 4.68C169.919 4.68 170.951 4.98 171.783 5.58C172.623 6.172 173.259 6.984 173.691 8.016C174.123 9.048 174.339 10.216 174.339 11.52C174.339 12.808 174.123 13.972 173.691 15.012C173.259 16.044 172.615 16.86 171.759 17.46C170.903 18.06 169.843 18.36 168.579 18.36ZM169.023 15.768C169.799 15.768 170.423 15.592 170.895 15.24C171.375 14.88 171.723 14.38 171.939 13.74C172.163 13.1 172.275 12.36 172.275 11.52C172.275 10.672 172.163 9.932 171.939 9.3C171.723 8.66 171.383 8.164 170.919 7.812C170.455 7.452 169.855 7.272 169.119 7.272C168.343 7.272 167.703 7.464 167.199 7.848C166.695 8.224 166.323 8.736 166.083 9.384C165.843 10.024 165.723 10.736 165.723 11.52C165.723 12.312 165.839 13.032 166.071 13.68C166.311 14.32 166.675 14.828 167.163 15.204C167.651 15.58 168.271 15.768 169.023 15.768ZM172.275 18V8.904H171.915V0.719999H174.831V18H172.275ZM184.088 18.36C182.776 18.36 181.624 18.076 180.632 17.508C179.64 16.94 178.864 16.152 178.304 15.144C177.752 14.136 177.476 12.976 177.476 11.664C177.476 10.248 177.748 9.02 178.292 7.98C178.836 6.932 179.592 6.12 180.56 5.544C181.528 4.968 182.648 4.68 183.92 4.68C185.264 4.68 186.404 4.996 187.34 5.628C188.284 6.252 188.984 7.136 189.44 8.28C189.896 9.424 190.068 10.772 189.956 12.324H187.088V11.268C187.08 9.86 186.832 8.832 186.344 8.184C185.856 7.536 185.088 7.212 184.04 7.212C182.856 7.212 181.976 7.58 181.4 8.316C180.824 9.044 180.536 10.112 180.536 11.52C180.536 12.832 180.824 13.848 181.4 14.568C181.976 15.288 182.816 15.648 183.92 15.648C184.632 15.648 185.244 15.492 185.756 15.18C186.276 14.86 186.676 14.4 186.956 13.8L189.812 14.664C189.316 15.832 188.548 16.74 187.508 17.388C186.476 18.036 185.336 18.36 184.088 18.36ZM179.624 12.324V10.14H188.54V12.324H179.624ZM192.633 18V5.04H195.189V8.196L194.877 7.788C195.037 7.356 195.249 6.964 195.513 6.612C195.785 6.252 196.109 5.956 196.485 5.724C196.805 5.508 197.157 5.34 197.541 5.22C197.933 5.092 198.333 5.016 198.741 4.992C199.149 4.96 199.545 4.976 199.929 5.04V7.74C199.545 7.628 199.101 7.592 198.597 7.632C198.101 7.672 197.653 7.812 197.253 8.052C196.853 8.268 196.525 8.544 196.269 8.88C196.021 9.216 195.837 9.6 195.717 10.032C195.597 10.456 195.537 10.916 195.537 11.412V18H192.633Z" fill="#F4F4F4"/>
</svg>
